<?xml version="1.0" encoding="UTF-8"?>
<svg id="_图层_1" data-name="图层 1" xmlns="http://www.w3.org/2000/svg" viewBox="0 0 40 40">
  <defs>
    <style>
      .cls-1 {
        fill: #fff;
      }

      .cls-2 {
        fill: #8a97ab;
      }

      .cls-3 {
        isolation: isolate;
        opacity: .9;
      }
    </style>
  </defs>
  <g id="_图层_2" data-name="图层 2" class="cls-3">
    <g id="_图层_1-2" data-name="图层 1-2">
      <path class="cls-2" d="M5,0h30c2.8,0,5,2.2,5,5v30c0,2.8-2.2,5-5,5H5c-2.8,0-5-2.2-5-5V5C0,2.2,2.2,0,5,0Z"/>
    </g>
  </g>
  <g>
    <path class="cls-1" d="M6.81,8.5c-.17,0-.35-.06-.49-.19-.28-.27-.29-.71-.02-1,.58-.6,2.18-2.15,4.61-3.52,3.34-1.88,6.89-2.7,10.55-2.44,6.44.47,10.7,4.2,12.23,5.78.27.28.26.73-.02,1-.28.27-.73.26-1-.02-1.42-1.47-5.36-4.93-11.32-5.36-7.8-.57-13.06,4.51-14.04,5.53-.14.14-.32.22-.51.22Z"/>
    <path class="cls-1" d="M30.33,11.38c-.21,0-.42-.09-.55-.27-.78-.99-3.69-4.26-8.48-4.72-2.69-.26-5.28.41-7.72,1.99-1.9,1.23-3.02,2.59-3.14,2.74-.24.3-.69.35-.99.11-.3-.24-.35-.69-.11-.99.22-.28,1.43-1.72,3.48-3.05,2.67-1.73,5.66-2.49,8.62-2.2,5.35.52,8.58,4.15,9.45,5.26.24.31.19.75-.12.99-.13.1-.28.15-.43.15Z"/>
    <path class="cls-1" d="M28.86,16.75c0,2.83-1.58,4.95-2.62,6.04-.56.59-.97,1.32-1.18,2.11,0,0,0,0,0,.01-.22.8-.44,1.6-.66,2.4-.68-.02-1.36-.03-2.04-.05-.28,0-.56-.01-.85-.02-.84-.02-1.68-.04-2.52-.06-.28,0-.56-.01-.85-.02-.8-.02-1.6-.04-2.4-.05-.08-.56-.24-1.31-.59-2.13,0,0,0-.01,0-.02-.35-.83-.86-1.58-1.5-2.21-1.55-1.55-2.51-3.67-2.51-6.01,0-4.76,3.97-8.62,8.86-8.62s8.86,3.86,8.86,8.62Z"/>
    <path class="cls-1" d="M25.43,29.19c0,.33-.13.63-.35.85-.22.22-.51.35-.84.35h-8.36c-.66,0-1.2-.54-1.2-1.2,0-.33.13-.63.35-.85.22-.22.51-.35.85-.35h8.36c.66,0,1.19.54,1.19,1.2Z"/>
    <path class="cls-1" d="M24.24,33.46h-8.36c-.66,0-1.19-.53-1.19-1.19h0c0-.66.53-1.19,1.19-1.19h8.36c.66,0,1.19.53,1.19,1.19h0c0,.66-.53,1.19-1.19,1.19Z"/>
    <path class="cls-1" d="M16.33,34.3h7.56c0,1.64-1.33,2.97-2.97,2.97h-1.61c-1.64,0-2.97-1.33-2.97-2.97h0Z"/>
    <g>
      <path class="cls-1" d="M18.52,28h.11s-.04,0-.06,0-.04,0-.06,0Z"/>
      <path class="cls-2" d="M19,19.14v8.06c-.28,0-.56-.01-.85-.02v-8.06h0c.06-1-.58-1.78-1.2-1.9-.36-.07-.79.07-1.14.36-.45.37-.71.94-.71,1.55,0,.23-.19.42-.42.42h0c-.23,0-.42-.19-.42-.42,0-.86.37-1.66,1.01-2.19.55-.46,1.22-.66,1.83-.55,1.14.21,1.97,1.41,1.9,2.75Z"/>
    </g>
    <g>
      <path class="cls-1" d="M21.88,28h.11s-.04,0-.06,0-.04,0-.06,0Z"/>
      <path class="cls-2" d="M26.26,19.13c0,.23-.19.42-.42.42h0c-.23,0-.42-.19-.42-.42,0-.61-.26-1.17-.71-1.55-.35-.29-.78-.43-1.14-.36-.63.11-1.26.9-1.2,1.89h0v8.17c-.28,0-.56-.01-.85-.02v-8.11c-.07-1.34.76-2.55,1.9-2.75.61-.11,1.28.09,1.83.55.64.53,1.01,1.33,1.01,2.19Z"/>
    </g>
  </g>
</svg>