<?xml version="1.0" encoding="utf-8"?>
<!-- Generator: Adobe Illustrator 28.0.0, SVG Export Plug-In . SVG Version: 6.00 Build 0)  -->
<svg version="1.1" id="图层_1" xmlns="http://www.w3.org/2000/svg" xmlns:xlink="http://www.w3.org/1999/xlink" x="0px" y="0px"
	 viewBox="0 0 40 40" style="enable-background:new 0 0 40 40;" xml:space="preserve">
<style type="text/css">
	.st0{opacity:0.9;fill:#8A97AB;enable-background:new    ;}
	.st1{fill:#FFFFFF;}
</style>
<g id="图层_2_00000029750998315075130080000000548279769260901039_">
	<g id="图层_1-2_00000155126012137130149270000006708814353404685956_">
		<path class="st0" d="M5,0h30c2.8,0,5,2.2,5,5v30c0,2.8-2.2,5-5,5H5c-2.8,0-5-2.2-5-5V5C0,2.2,2.2,0,5,0z"/>
	</g>
</g>
<path class="st1" d="M10.5,9.6c1,0,1.7-0.8,1.7-1.7c0-1-0.8-1.7-1.7-1.7H7c-1,0-1.7,0.8-1.7,1.7v24.3c0,1,0.8,1.7,1.7,1.7h3.5
	c1,0,1.7-0.8,1.7-1.7c0-1-0.8-1.7-1.7-1.7H8.7V9.6H10.5z M34.4,19l-4.9-6.9c-0.6-0.8-1.6-1-2.4-0.4c-0.4,0.3-0.6,0.7-0.7,1.1
	c-0.1,0.5,0,0.9,0.3,1.3l3,4.2h-14c-1,0-1.7,0.8-1.7,1.7c0,1,0.8,1.7,1.7,1.7h13.9l-3.1,4.2c-0.6,0.8-0.4,1.9,0.3,2.4
	c0.3,0.2,0.7,0.3,1,0.3c0.5,0,1.1-0.3,1.4-0.7l5.2-6.9C34.9,20.4,34.9,19.6,34.4,19L34.4,19z M34.4,19"/>
</svg>
